<svg version="1.1" id="Layer_1" xmlns="http://www.w3.org/2000/svg" xmlns:xlink="http://www.w3.org/1999/xlink" x="0px" y="0px"
	 width="100%" viewBox="0 0 765 508" enable-background="new 0 0 765 508" xml:space="preserve">
<path fill="#000000" opacity="1.000000" stroke="none" 
	d="
M484.000000,509.000000 
	C322.666656,509.000000 161.833328,509.000000 1.000000,509.000000 
	C1.000000,339.666656 1.000000,170.333328 1.000000,1.000000 
	C256.000000,1.000000 511.000000,1.000000 766.000000,1.000000 
	C766.000000,170.333328 766.000000,339.666656 766.000000,509.000000 
	C672.166687,509.000000 578.333313,509.000000 484.000000,509.000000 
M398.113922,269.795929 
	C398.113922,269.795929 398.268280,269.874573 398.273346,270.560699 
	C399.570221,271.925873 400.867065,273.291046 402.144653,274.816681 
	C402.144653,274.816681 402.298950,274.864624 402.354340,275.553711 
	C403.938568,277.311127 405.522766,279.068542 407.068176,280.901276 
	C407.068176,280.901276 407.151978,280.913757 407.177490,281.586700 
	C408.446106,282.736847 409.714722,283.886993 411.318939,285.353760 
	C411.540771,285.567078 411.754089,285.788605 411.880890,286.711884 
	C415.284851,289.418762 418.688812,292.125641 422.108276,294.925537 
	C422.108276,294.925537 422.195587,294.889709 422.465302,295.504333 
	C424.684998,296.921173 426.904694,298.338013 429.175781,299.896851 
	C429.175781,299.896851 429.314423,299.836975 429.525635,300.511871 
	C432.059479,301.866119 434.593353,303.220398 437.601593,304.858154 
	C437.784607,304.879120 437.967651,304.900116 438.578308,305.474243 
	C440.732666,306.275421 442.887054,307.076569 445.522064,307.979401 
	C445.522064,307.979401 446.010132,307.923187 446.569366,308.250427 
	C448.040863,308.137085 449.512329,308.023773 451.465668,307.959015 
	C451.465668,307.959015 451.932922,307.831635 452.641266,307.903107 
	C454.281616,303.922119 453.937653,303.415558 450.098999,303.638672 
	C448.719910,303.718903 447.315002,303.355682 445.373230,302.924072 
	C444.828064,302.658295 444.282928,302.392548 443.463104,301.524323 
	C442.282013,300.755890 441.100891,299.987488 439.435913,298.808258 
	C438.566223,298.237091 437.696533,297.665955 436.655762,296.455444 
	C434.742828,295.048004 432.829926,293.640594 430.441223,291.943512 
	C430.204315,291.659515 429.967407,291.375519 429.677734,290.414215 
	C428.107605,288.628906 426.537476,286.843567 424.713989,284.343903 
	C423.123871,280.089111 420.751678,275.954620 420.075836,271.559235 
	C416.733704,249.823502 419.143158,229.206482 432.692780,210.830627 
	C442.972473,196.889435 456.812683,188.411392 473.426453,185.234924 
	C485.559723,182.915115 497.801971,183.441467 510.239655,186.557922 
	C524.788940,190.203491 536.670532,197.789474 548.734436,207.015640 
	C549.376282,196.372711 550.051208,186.183228 550.513489,175.984100 
	C550.560364,174.949051 549.570496,173.516174 548.643555,172.849380 
	C544.893066,170.151627 541.252747,167.047913 537.075378,165.242599 
	C522.873596,159.105072 508.286774,154.476074 492.540283,153.900330 
	C474.236938,153.231110 456.828369,156.694244 440.302856,164.199310 
	C434.004456,167.059738 427.883881,170.865875 422.627411,175.349152 
	C412.145569,184.289139 403.004303,194.406891 396.628265,206.991089 
	C389.870972,220.327850 384.830078,233.703232 388.092255,249.720840 
	C389.427917,252.750610 390.763611,255.780365 392.186829,259.385986 
	C392.297363,259.545593 392.407898,259.705200 392.570404,260.577942 
	C394.063690,263.021149 395.556976,265.464355 397.260681,268.551666 
	C397.430176,268.700958 397.599670,268.850250 397.651978,269.299561 
	C397.718964,269.553894 397.882690,269.662445 398.113922,269.795929 
M311.556946,156.226059 
	C310.650726,156.516434 309.202606,156.545303 308.917786,157.135529 
	C302.166382,171.126923 295.496246,185.158157 288.907135,199.226990 
	C284.822235,207.948929 280.942352,216.766663 276.886993,225.502640 
	C268.848572,242.818665 260.790039,260.125702 252.612457,277.376099 
	C251.917175,278.842773 250.120560,281.011353 249.088074,280.879303 
	C244.919113,280.346191 240.832565,279.098450 236.757523,277.963928 
	C236.001678,277.753479 235.427811,276.859741 234.791031,276.259003 
	C234.062332,275.571533 233.357132,274.859131 232.641693,274.157593 
	C232.336487,275.287140 231.403015,276.930450 231.834244,277.457764 
	C233.758240,279.810486 235.706070,282.646698 238.316238,283.837372 
	C245.101181,286.932404 252.101898,289.732971 259.265015,291.782410 
	C273.331512,295.806976 287.644257,298.972504 301.704193,303.017853 
	C310.729767,305.614655 319.699005,308.653290 328.317688,312.366211 
	C345.381500,319.717285 358.401917,331.360657 365.145630,349.257629 
	C366.274261,352.252960 366.918762,356.198303 371.974060,356.037750 
	C381.123871,355.747070 390.289734,355.982361 399.448395,355.922272 
	C400.684875,355.914185 401.918427,355.467438 404.034241,355.049988 
	C401.941193,350.719360 400.112946,347.004120 398.342377,343.261627 
	C390.568756,326.830444 382.767242,310.412201 375.062164,293.948883 
	C368.319580,279.542114 361.711517,265.072449 355.008942,250.646881 
	C346.529083,232.396088 337.973236,214.180511 329.527252,195.914124 
	C323.530731,182.945282 317.661804,169.917435 311.556946,156.226059 
M436.128174,312.507385 
	C429.460266,308.121155 422.872955,303.605957 416.105865,299.378448 
	C405.571899,292.797729 396.296082,284.806549 387.691467,275.859863 
	C383.765747,271.778046 379.257751,267.727997 372.849152,267.991547 
	C371.819092,268.033905 370.830597,269.085938 369.822876,269.671234 
	C370.575287,270.385986 371.233917,271.254089 372.099731,271.783295 
	C373.860352,272.859436 376.144836,273.363007 377.490540,274.786102 
	C384.740082,282.452698 390.444977,291.201813 395.211761,300.626282 
	C398.197296,306.529053 401.217987,312.516174 405.061615,317.862488 
	C414.199585,330.572968 426.149078,340.649200 440.319000,346.748749 
	C451.784760,351.684296 464.378815,354.844055 476.778320,356.497772 
	C486.718872,357.823578 497.136200,355.915894 507.310150,355.063690 
	C519.975830,354.002716 531.455872,349.145599 542.348633,342.910675 
	C544.813538,341.499817 548.435120,339.158386 548.548706,337.082520 
	C549.162170,325.869934 548.839294,314.606140 548.839294,302.709015 
	C546.831482,303.557556 545.351135,303.913696 544.183838,304.721985 
	C538.343994,308.765594 533.095398,314.155487 526.699951,316.807648 
	C510.381165,323.575043 493.913330,329.098694 475.298523,325.516937 
	C461.747162,322.909515 449.049591,318.889282 436.128174,312.507385 
M280.225372,314.384979 
	C268.737610,306.877808 257.249847,299.370667 245.673065,291.805298 
	C241.485580,300.913818 237.399292,309.961914 233.168991,318.942139 
	C230.750320,324.076630 227.970139,329.041779 225.583099,334.190002 
	C222.853027,340.078003 220.383286,346.086517 217.790848,352.038544 
	C216.621857,354.722412 217.155853,356.085938 220.411850,356.048187 
	C229.070969,355.947723 237.738953,356.193115 246.386780,355.864105 
	C248.282669,355.791962 251.063889,354.357513 251.811798,352.779816 
	C256.351440,343.203430 260.375580,333.384033 264.672852,323.690582 
	C266.015564,320.661713 267.671112,317.771545 269.242706,314.702118 
	C274.479401,317.817047 279.331421,320.703156 284.489197,323.771118 
	C286.527649,322.037598 285.536652,318.663635 280.225372,314.384979 
z"/>
<path fill="#F8F8F8" opacity="1.000000" stroke="none" 
	d="
M311.646423,156.570984 
	C317.661804,169.917435 323.530731,182.945282 329.527252,195.914124 
	C337.973236,214.180511 346.529083,232.396088 355.008942,250.646881 
	C361.711517,265.072449 368.319580,279.542114 375.062164,293.948883 
	C382.767242,310.412201 390.568756,326.830444 398.342377,343.261627 
	C400.112946,347.004120 401.941193,350.719360 404.034241,355.049988 
	C401.918427,355.467438 400.684875,355.914185 399.448395,355.922272 
	C390.289734,355.982361 381.123871,355.747070 371.974060,356.037750 
	C366.918762,356.198303 366.274261,352.252960 365.145630,349.257629 
	C358.401917,331.360657 345.381500,319.717285 328.317688,312.366211 
	C319.699005,308.653290 310.729767,305.614655 301.704193,303.017853 
	C287.644257,298.972504 273.331512,295.806976 259.265015,291.782410 
	C252.101898,289.732971 245.101181,286.932404 238.316238,283.837372 
	C235.706070,282.646698 233.758240,279.810486 231.834244,277.457764 
	C231.403015,276.930450 232.336487,275.287140 232.641693,274.157593 
	C233.357132,274.859131 234.062332,275.571533 234.791031,276.259003 
	C235.427811,276.859741 236.001678,277.753479 236.757523,277.963928 
	C240.832565,279.098450 244.919113,280.346191 249.088074,280.879303 
	C250.120560,281.011353 251.917175,278.842773 252.612457,277.376099 
	C260.790039,260.125702 268.848572,242.818665 276.886993,225.502640 
	C280.942352,216.766663 284.822235,207.948929 288.907135,199.226990 
	C295.496246,185.158157 302.166382,171.126923 308.917786,157.135529 
	C309.202606,156.545303 310.650726,156.516434 311.646423,156.570984 
M293.960083,258.534760 
	C289.572388,265.876190 288.834442,275.316406 281.405518,281.312408 
	C300.025513,281.985718 318.906738,282.668488 338.306183,283.369995 
	C329.297852,263.448975 320.270935,243.486893 310.626434,222.159058 
	C304.714050,235.020355 299.477173,246.412186 293.960083,258.534760 
z"/>
<path fill="#F8F8F8" opacity="1.000000" stroke="none" 
	d="
M388.205780,248.933884 
	C384.830078,233.703232 389.870972,220.327850 396.628265,206.991089 
	C403.004303,194.406891 412.145569,184.289139 422.627411,175.349152 
	C427.883881,170.865875 434.004456,167.059738 440.302856,164.199310 
	C456.828369,156.694244 474.236938,153.231110 492.540283,153.900330 
	C508.286774,154.476074 522.873596,159.105072 537.075378,165.242599 
	C541.252747,167.047913 544.893066,170.151627 548.643555,172.849380 
	C549.570496,173.516174 550.560364,174.949051 550.513489,175.984100 
	C550.051208,186.183228 549.376282,196.372711 548.734436,207.015640 
	C536.670532,197.789474 524.788940,190.203491 510.239655,186.557922 
	C497.801971,183.441467 485.559723,182.915115 473.426453,185.234924 
	C456.812683,188.411392 442.972473,196.889435 432.692780,210.830627 
	C419.143158,229.206482 416.733704,249.823502 420.075836,271.559235 
	C420.751678,275.954620 423.123871,280.089111 424.803009,285.052368 
	C426.504822,287.537750 428.117645,289.314636 429.730469,291.091522 
	C429.967407,291.375519 430.204315,291.659515 430.724548,292.421448 
	C432.947540,294.297852 434.887177,295.696320 436.826843,297.094788 
	C437.696533,297.665955 438.566223,298.237091 439.687683,299.343018 
	C441.205536,300.627472 442.471649,301.377106 443.737762,302.126770 
	C444.282928,302.392548 444.828064,302.658295 445.703217,303.394409 
	C447.540344,304.524841 449.111206,305.075043 450.525635,305.895050 
	C451.156830,306.260986 451.473480,307.169434 451.932922,307.831635 
	C451.932922,307.831635 451.465668,307.959015 450.983551,307.692596 
	C449.004333,307.591858 447.507233,307.757507 446.010132,307.923157 
	C446.010132,307.923187 445.522064,307.979401 445.156067,307.597717 
	C442.576935,306.451080 440.363800,305.686096 438.150665,304.921112 
	C437.967651,304.900116 437.784607,304.879120 437.322327,304.388306 
	C434.466827,302.557953 431.890625,301.197479 429.314423,299.836975 
	C429.314423,299.836975 429.175781,299.896851 429.098297,299.498169 
	C426.745728,297.696259 424.470673,296.292969 422.195587,294.889709 
	C422.195587,294.889709 422.108276,294.925537 422.060669,294.544128 
	C418.661652,291.447906 415.310272,288.733154 411.958893,286.018372 
	C411.754089,285.788605 411.540771,285.567078 411.169678,284.855286 
	C409.730957,283.209137 408.441467,282.061432 407.151978,280.913757 
	C407.151978,280.913757 407.068176,280.901276 407.084961,280.522949 
	C405.500824,278.384613 403.899902,276.624603 402.298950,274.864624 
	C402.298950,274.864624 402.144653,274.816681 402.130371,274.405701 
	C400.833496,272.621368 399.550873,271.247955 398.268280,269.874573 
	C398.268280,269.874573 398.113922,269.795929 398.187317,269.557556 
	C398.205109,269.046051 398.041260,268.939484 397.769165,268.999573 
	C397.599670,268.850250 397.430176,268.700958 397.198303,267.867950 
	C395.596741,264.744415 394.057617,262.304626 392.518463,259.864807 
	C392.407898,259.705200 392.297363,259.545593 392.201630,258.718506 
	C390.879547,255.011978 389.542664,251.972931 388.205780,248.933884 
z"/>
<path fill="#F6F6F6" opacity="1.000000" stroke="none" 
	d="
M436.477783,312.667664 
	C449.049591,318.889282 461.747162,322.909515 475.298523,325.516937 
	C493.913330,329.098694 510.381165,323.575043 526.699951,316.807648 
	C533.095398,314.155487 538.343994,308.765594 544.183838,304.721985 
	C545.351135,303.913696 546.831482,303.557556 548.839294,302.709015 
	C548.839294,314.606140 549.162170,325.869934 548.548706,337.082520 
	C548.435120,339.158386 544.813538,341.499817 542.348633,342.910675 
	C531.455872,349.145599 519.975830,354.002716 507.310150,355.063690 
	C497.136200,355.915894 486.718872,357.823578 476.778320,356.497772 
	C464.378815,354.844055 451.784760,351.684296 440.319000,346.748749 
	C426.149078,340.649200 414.199585,330.572968 405.061615,317.862488 
	C401.217987,312.516174 398.197296,306.529053 395.211761,300.626282 
	C390.444977,291.201813 384.740082,282.452698 377.490540,274.786102 
	C376.144836,273.363007 373.860352,272.859436 372.099731,271.783295 
	C371.233917,271.254089 370.575287,270.385986 369.822876,269.671234 
	C370.830597,269.085938 371.819092,268.033905 372.849152,267.991547 
	C379.257751,267.727997 383.765747,271.778046 387.691467,275.859863 
	C396.296082,284.806549 405.571899,292.797729 416.105865,299.378448 
	C422.872955,303.605957 429.460266,308.121155 436.477783,312.667664 
z"/>
<path fill="#F4F5F5" opacity="1.000000" stroke="none" 
	d="
M280.543884,314.564880 
	C285.536652,318.663635 286.527649,322.037598 284.489197,323.771118 
	C279.331421,320.703156 274.479401,317.817047 269.242706,314.702118 
	C267.671112,317.771545 266.015564,320.661713 264.672852,323.690582 
	C260.375580,333.384033 256.351440,343.203430 251.811798,352.779816 
	C251.063889,354.357513 248.282669,355.791962 246.386780,355.864105 
	C237.738953,356.193115 229.070969,355.947723 220.411850,356.048187 
	C217.155853,356.085938 216.621857,354.722412 217.790848,352.038544 
	C220.383286,346.086517 222.853027,340.078003 225.583099,334.190002 
	C227.970139,329.041779 230.750320,324.076630 233.168991,318.942139 
	C237.399292,309.961914 241.485580,300.913818 245.673065,291.805298 
	C257.249847,299.370667 268.737610,306.877808 280.543884,314.564880 
z"/>
<path fill="#BABBBC" opacity="1.000000" stroke="none" 
	d="
M411.919891,286.365112 
	C415.310272,288.733154 418.661652,291.447906 422.052917,294.497589 
	C418.688812,292.125641 415.284851,289.418762 411.919891,286.365112 
z"/>
<path fill="#B0B1B2" opacity="1.000000" stroke="none" 
	d="
M452.287109,307.867371 
	C451.473480,307.169434 451.156830,306.260986 450.525635,305.895050 
	C449.111206,305.075043 447.540344,304.524841 445.977539,303.529785 
	C447.315002,303.355682 448.719910,303.718903 450.098999,303.638672 
	C453.937653,303.415558 454.281616,303.922119 452.287109,307.867371 
z"/>
<path fill="#BABBBC" opacity="1.000000" stroke="none" 
	d="
M388.149017,249.327362 
	C389.542664,251.972931 390.879547,255.011978 392.157867,258.430573 
	C390.763611,255.780365 389.427917,252.750610 388.149017,249.327362 
z"/>
<path fill="#BABBBC" opacity="1.000000" stroke="none" 
	d="
M429.420044,300.174438 
	C431.890625,301.197479 434.466827,302.557953 437.085114,304.246521 
	C434.593353,303.220398 432.059479,301.866119 429.420044,300.174438 
z"/>
<path fill="#BABBBC" opacity="1.000000" stroke="none" 
	d="
M392.544434,260.221375 
	C394.057617,262.304626 395.596741,264.744415 397.093079,267.545898 
	C395.556976,265.464355 394.063690,263.021149 392.544434,260.221375 
z"/>
<path fill="#BABBBC" opacity="1.000000" stroke="none" 
	d="
M422.330444,295.197021 
	C424.470673,296.292969 426.745728,297.696259 429.072601,299.427185 
	C426.904694,298.338013 424.684998,296.921173 422.330444,295.197021 
z"/>
<path fill="#BABBBC" opacity="1.000000" stroke="none" 
	d="
M402.326660,275.209167 
	C403.899902,276.624603 405.500824,278.384613 407.104370,280.485291 
	C405.522766,279.068542 403.938568,277.311127 402.326660,275.209167 
z"/>
<path fill="#B6B7B8" opacity="1.000000" stroke="none" 
	d="
M429.704102,290.752869 
	C428.117645,289.314636 426.504822,287.537750 424.929688,285.409546 
	C426.537476,286.843567 428.107605,288.628906 429.704102,290.752869 
z"/>
<path fill="#B6B7B8" opacity="1.000000" stroke="none" 
	d="
M436.741302,296.775116 
	C434.887177,295.696320 432.947540,294.297852 430.962433,292.566284 
	C432.829926,293.640594 434.742828,295.048004 436.741302,296.775116 
z"/>
<path fill="#BABBBC" opacity="1.000000" stroke="none" 
	d="
M438.364502,305.197693 
	C440.363800,305.686096 442.576935,306.451080 444.915741,307.546875 
	C442.887054,307.076569 440.732666,306.275421 438.364502,305.197693 
z"/>
<path fill="#BABBBC" opacity="1.000000" stroke="none" 
	d="
M398.270813,270.217651 
	C399.550873,271.247955 400.833496,272.621368 402.140015,274.325500 
	C400.867065,273.291046 399.570221,271.925873 398.270813,270.217651 
z"/>
<path fill="#BABBBC" opacity="1.000000" stroke="none" 
	d="
M407.164734,281.250244 
	C408.441467,282.061432 409.730957,283.209137 411.001862,284.696991 
	C409.714722,283.886993 408.446106,282.736847 407.164734,281.250244 
z"/>
<path fill="#B0B1B2" opacity="1.000000" stroke="none" 
	d="
M446.289734,308.086792 
	C447.507233,307.757507 449.004333,307.591858 450.742615,307.668304 
	C449.512329,308.023773 448.040863,308.137085 446.289734,308.086792 
z"/>
<path fill="#B6B7B8" opacity="1.000000" stroke="none" 
	d="
M443.600433,301.825562 
	C442.471649,301.377106 441.205536,300.627472 439.929626,299.548431 
	C441.100891,299.987488 442.282013,300.755890 443.600433,301.825562 
z"/>
<path fill="#BABBBC" opacity="1.000000" stroke="none" 
	d="
M397.710571,269.149567 
	C398.041260,268.939484 398.205109,269.046051 398.201965,269.472168 
	C397.882690,269.662445 397.718964,269.553894 397.710571,269.149567 
z"/>
<path fill="#050505" opacity="1.000000" stroke="none" 
	d="
M294.100189,258.169373 
	C299.477173,246.412186 304.714050,235.020355 310.626434,222.159058 
	C320.270935,243.486893 329.297852,263.448975 338.306183,283.369995 
	C318.906738,282.668488 300.025513,281.985718 281.405518,281.312408 
	C288.834442,275.316406 289.572388,265.876190 294.100189,258.169373 
z"/>
</svg>